<?xml version="1.0" encoding="UTF-8"?>
<svg id="Layer_2" data-name="Layer 2" xmlns="http://www.w3.org/2000/svg" viewBox="0 0 72 66.81">
  <defs>
    <style>
      .cls-1 {
        fill: #007fa3;
      }
    </style>
  </defs>
  <g id="Layer_1-2" data-name="Layer 1">
    <g>
      <path class="cls-1" d="M25.69,8.9c-.66,0-1.19-.53-1.19-1.19s.53-1.19,1.19-1.19,1.19,.53,1.19,1.19h0c0,.66-.53,1.19-1.19,1.19Z"/>
      <path class="cls-1" d="M25.69,20.68c-.48,0-.88-.39-.88-.88V10.54c0-.48,.39-.88,.88-.88s.88,.39,.88,.88v9.27c0,.48-.39,.88-.88,.88Z"/>
      <path class="cls-1" d="M27.58,11.41h-3.79c-.48,0-.88-.39-.88-.88s.39-.88,.88-.88h3.79c.48,0,.88,.39,.88,.88s-.39,.88-.88,.88Z"/>
      <path class="cls-1" d="M27.58,20.68h-3.79c-.48,0-.88-.39-.88-.88s.39-.88,.88-.88h3.79c.48,0,.88,.39,.88,.88s-.39,.88-.88,.88Z"/>
      <path class="cls-1" d="M40.66,31.36c-.23,0-.45-.09-.61-.25l-5.08-4.94H16.24c-3.54,0-6.4-2.87-6.41-6.41V8.04c0-3.54,2.87-6.4,6.41-6.41h18.89c3.54,0,6.4,2.87,6.41,6.41V30.49c0,.35-.21,.67-.53,.81-.11,.05-.22,.07-.34,.07ZM16.24,3.38c-2.57,0-4.66,2.09-4.66,4.66v11.73c0,2.57,2.09,4.65,4.66,4.66h19.08c.23,0,.45,.09,.61,.25l3.85,3.74V8.04c0-2.57-2.09-4.65-4.66-4.66H16.24Z"/>
      <path class="cls-1" d="M.88,44.39c-.48,0-.88-.39-.88-.88V21.06c0-3.54,2.87-6.4,6.41-6.41h1.22c.48,0,.88,.39,.88,.88s-.39,.88-.88,.88h-1.22c-2.57,0-4.66,2.09-4.66,4.66v20.38l3.85-3.75c.16-.16,.38-.25,.61-.25H25.29c2.57,0,4.66-2.09,4.66-4.66v-4.55c0-.48,.39-.88,.88-.88s.88,.39,.88,.88v4.56c0,3.54-2.87,6.4-6.41,6.41H6.57l-5.08,4.94c-.16,.16-.38,.25-.61,.25Z"/>
      <path class="cls-1" d="M61.96,66.81c-.48,0-.88-.39-.88-.88v-10.35c-.23-.98-.99-1.74-1.97-1.98-1.16-.29-2.35-.42-3.54-.41-.44,0-.89,.04-1.36,.07-.88,.08-1.77,.09-2.66,.03-1.92-.18-3.41-.98-4.19-2.27-.51-.84-.95-2.29-.11-4.38v-.02c.44-.98,.09-1.58-.34-2.33-.05-.08-.09-.16-.13-.23-1.14-2.04-.42-3.25,.11-4.13,.26-.44,.47-.78,.48-1.21-.02-.34-.29-.61-.63-.62-1.22-.11-2.37-.64-3.26-1.49-.81-.83-.95-2.11-.34-3.1,.28-.46,.55-.89,.8-1.29q3.52-5.71,4.39-11.97c.18-1.25,.39-2.81,.68-4.69,1.13-7.5,8.5-15.56,22-15.56h.12c.48,0,.88,.39,.88,.88s-.39,.88-.88,.88h-.11c-12.47,0-19.25,7.28-20.27,14.07-.28,1.87-.5,3.42-.67,4.67-.91,6.57-.96,6.68-4.63,12.64-.25,.4-.51,.83-.79,1.29-.19,.3-.15,.7,.09,.96,.61,.56,1.38,.91,2.2,.98,1.24,.1,2.2,1.14,2.2,2.39-.02,.89-.41,1.55-.73,2.08-.47,.79-.73,1.22-.08,2.38,.04,.07,.08,.14,.12,.22,.48,.84,1.21,2.11,.44,3.89-.44,1.11-.45,2.07-.01,2.79,.49,.8,1.5,1.31,2.86,1.43,.79,.05,1.59,.04,2.39-.03,.47-.03,.96-.06,1.44-.07,1.34-.02,2.68,.14,3.99,.47,1.66,.41,2.94,1.74,3.28,3.41,.01,.06,.02,.12,.02,.18v10.45c0,.48-.4,.87-.88,.86Z"/>
      <path class="cls-1" d="M13.95,19.77c0,1.26,1.02,2.29,2.29,2.29h5.75L13.95,14.02v5.75Z"/>
    </g>
  </g>
</svg>