<?xml version="1.0" encoding="UTF-8"?>
<svg id="Layer_2" data-name="Layer 2" xmlns="http://www.w3.org/2000/svg" viewBox="0 0 67.11 58.84">
  <defs>
    <style>
      .cls-1 {
        fill: #00c3de;
      }
    </style>
  </defs>
  <g id="Layer_1-2" data-name="Layer 1">
    <g>
      <path class="cls-1" d="M61.84,37.59c-.48,0-.88-.39-.88-.88s.39-.88,.88-.88c1.94,0,3.52-1.58,3.52-3.52v-7.96c0-1.2-.54-2.34-1.47-3.11l-3.7-3.05c-.37-.31-.43-.86-.13-1.23,.31-.37,.86-.43,1.23-.13,0,0,0,0,0,0l3.7,3.04c1.34,1.09,2.11,2.73,2.11,4.46v7.96c0,2.91-2.36,5.27-5.27,5.28Z"/>
      <path class="cls-1" d="M57.83,58.84h-1.2c-.48,0-.88-.39-.88-.88s.39-.88,.88-.88h1.2c1.63,0,2.95-1.32,2.95-2.95V28.16l-.02-2.6c0-.48,.39-.88,.88-.88h0c.48,0,.88,.39,.88,.88l.02,2.61v25.97c0,2.6-2.11,4.7-4.7,4.7Z"/>
      <path class="cls-1" d="M50.17,58.84c-2.6,0-4.7-2.11-4.7-4.7v-9.51c0-.48,.39-.88,.88-.88s.88,.39,.88,.88v9.51c0,1.63,1.32,2.95,2.95,2.95s2.95-1.32,2.95-2.95v-15.15c0-.48,.39-.88,.88-.88s.88,.39,.88,.88v15.15c0,2.6-2.11,4.7-4.71,4.7Z"/>
      <path class="cls-1" d="M54,17.13c-4.73,0-8.57-3.83-8.57-8.57C45.43,3.83,49.27,0,54,0s8.57,3.83,8.57,8.57h0c0,4.73-3.84,8.56-8.57,8.57Zm0-15.38c-3.76,0-6.81,3.05-6.81,6.81,0,3.76,3.05,6.81,6.81,6.81s6.81-3.05,6.81-6.81h0c0-3.76-3.05-6.81-6.81-6.81Z"/>
      <path class="cls-1" d="M13.63,3.95c-.81,0-1.61,.22-2.31,.62,2.21,1.27,2.96,4.09,1.69,6.3-.41,.7-.99,1.29-1.69,1.69,2.21,1.28,5.03,.52,6.31-1.68,1.28-2.21,.52-5.03-1.68-6.31-.7-.41-1.5-.62-2.32-.62Z"/>
      <path class="cls-1" d="M54.52,3.95c-.81,0-1.61,.22-2.31,.62,2.21,1.27,2.97,4.09,1.7,6.29-.41,.71-.99,1.29-1.7,1.7,2.21,1.28,5.03,.52,6.31-1.68,1.28-2.21,.52-5.03-1.68-6.31-.7-.41-1.5-.62-2.32-.62Z"/>
      <path class="cls-1" d="M5.27,37.59C2.36,37.59,0,35.23,0,32.32v-7.96c0-1.73,.77-3.36,2.11-4.46l3.7-3.04c.4-.28,.94-.18,1.22,.21,.25,.35,.2,.84-.11,1.13l-3.7,3.04c-.93,.76-1.47,1.9-1.47,3.11v7.96c0,1.94,1.58,3.52,3.52,3.52,.48,0,.88,.39,.88,.88s-.39,.88-.88,.88h0Z"/>
      <path class="cls-1" d="M16.94,58.84h-1.2c-.48,0-.88-.39-.88-.88s.39-.88,.88-.88h1.2c1.63,0,2.95-1.32,2.95-2.95v-9.51c0-.48,.39-.88,.88-.88s.88,.39,.88,.88v9.51c0,2.6-2.11,4.7-4.7,4.7Z"/>
      <path class="cls-1" d="M9.28,58.84c-2.6,0-4.7-2.11-4.7-4.7V28.16l.02-2.61c0-.48,.39-.88,.88-.88h0c.48,0,.88,.39,.88,.88l-.02,2.61v25.99c0,1.63,1.32,2.95,2.95,2.95s2.95-1.32,2.95-2.95v-15.15c0-.48,.39-.88,.88-.88s.88,.39,.88,.88v15.15c0,2.6-2.11,4.7-4.71,4.7Z"/>
      <path class="cls-1" d="M13.11,17.13c-4.73,0-8.57-3.83-8.57-8.56C4.54,3.84,8.38,0,13.11,0c4.73,0,8.57,3.83,8.57,8.56h0c0,4.73-3.84,8.56-8.56,8.57Zm0-15.38c-3.76,0-6.82,3.05-6.82,6.81,0,3.76,3.05,6.82,6.81,6.82,3.76,0,6.82-3.05,6.82-6.81h0c0-3.76-3.05-6.81-6.81-6.82Z"/>
      <path class="cls-1" d="M43.71,32.53c-.25,0-.49-.12-.66-.31l-1.9-2.23c-.31-.37-.27-.92,.1-1.23s.92-.27,1.23,.1l1.33,1.56,1.56-1.33c.37-.31,.92-.27,1.23,.1s.27,.92-.1,1.23l-2.24,1.9c-.16,.14-.36,.21-.57,.21Z"/>
      <path class="cls-1" d="M21.17,32.98c-.48,0-.88-.39-.88-.88,0-.2,.07-.4,.2-.56l1.86-2.26c.31-.37,.86-.43,1.23-.12l2.26,1.86c.37,.31,.43,.86,.12,1.23s-.86,.43-1.23,.12l-1.59-1.31-1.31,1.59c-.16,.2-.41,.32-.67,.33Z"/>
      <path class="cls-1" d="M43.71,28.41c-.42,0-.78-.3-.86-.72-.96-5.24-5.98-8.71-11.22-7.76-3.79,.69-6.81,3.58-7.67,7.33-.11,.47-.58,.77-1.05,.66-.47-.11-.77-.58-.66-1.05,1.41-6.14,7.52-9.97,13.65-8.56,4.44,1.02,7.85,4.58,8.67,9.06,.09,.48-.23,.93-.7,1.02-.05,.01-.1,.02-.16,.02Z"/>
      <path class="cls-1" d="M33.36,40.81c-4.43,0-8.46-2.58-10.34-6.59-.2-.44-.01-.96,.42-1.16,.44-.2,.96-.01,1.16,.42h0c1.59,3.4,5,5.57,8.75,5.58,3.7,.02,7.07-2.1,8.68-5.43,.22-.43,.75-.59,1.18-.37,.41,.21,.58,.71,.39,1.14-1.89,3.94-5.88,6.44-10.25,6.42Z"/>
      <path class="cls-1" d="M33.55,47.08c-9.75,0-17.66-7.91-17.66-17.66,0-9.75,7.91-17.66,17.66-17.66s17.66,7.91,17.66,17.66c-.01,9.75-7.91,17.65-17.66,17.66Zm0-33.57c-8.79,0-15.91,7.12-15.91,15.91s7.12,15.91,15.91,15.91,15.91-7.12,15.91-15.91c0-8.78-7.13-15.9-15.91-15.91h0Z"/>
    </g>
  </g>
</svg>