<?xml version="1.0" encoding="UTF-8"?>
<svg id="Layer_2" data-name="Layer 2" xmlns="http://www.w3.org/2000/svg" viewBox="0 0 76.5 70.19">
  <defs>
    <style>
      .cls-1 {
        fill: #007fa3;
      }
    </style>
  </defs>
  <g id="Layer_1-2" data-name="Layer 1">
    <g>
      <path class="cls-1" d="M54.14,38.63h-13.79v-7.7h3.67l-5.76-6.8-5.77,6.8h3.66v7.7h-11.97c-5.8,0-10.49-4.7-10.49-10.49,0-5.8,4.7-10.49,10.49-10.49,1.31,0,2.6,.24,3.82,.72,1.06-7.61,8.09-12.92,15.7-11.86,6.88,.96,12,6.85,11.99,13.8,0,.37-.02,.75-.05,1.13,4.71,.83,7.86,5.32,7.03,10.03-.73,4.14-4.33,7.16-8.54,7.16h0Zm-12.04-1.75h12.04c3.82,.01,6.92-3.07,6.94-6.89,.01-3.65-2.81-6.68-6.45-6.92l-.94-.07,.14-.93c.09-.59,.13-1.18,.13-1.77,.01-6.72-5.43-12.17-12.14-12.18-6.51-.01-11.87,5.1-12.17,11.6l-.07,1.39-1.23-.66c-4.25-2.3-9.55-.72-11.85,3.53-2.3,4.25-.72,9.55,3.53,11.85,1.28,.69,2.71,1.05,4.16,1.05h10.22v-4.2h-5.69l9.55-11.26,9.54,11.26h-5.69v4.2Z"/>
      <path class="cls-1" d="M72.73,54.15H4.6c-2.54,0-4.6-2.06-4.6-4.6V4.38C0,1.96,1.96,0,4.38,0H70.85c3.12,0,5.65,2.53,5.65,5.65V50.38c0,2.08-1.69,3.77-3.77,3.77ZM4.38,1.75c-1.45,0-2.63,1.18-2.63,2.63V49.56c0,1.57,1.27,2.84,2.84,2.84H72.73c1.11,0,2.02-.9,2.02-2.02h0V5.64c0-2.15-1.75-3.89-3.9-3.89H4.38Z"/>
      <path class="cls-1" d="M28.72,60.91c-.48,0-.88-.39-.88-.88v-6.76c0-.48,.39-.88,.88-.88s.88,.39,.88,.88v6.76c0,.48-.39,.88-.88,.88Z"/>
      <path class="cls-1" d="M47.79,60.91c-.48,0-.88-.39-.88-.88v-6.76c0-.48,.39-.88,.88-.88s.88,.39,.88,.88v6.76c0,.48-.39,.88-.88,.88Z"/>
      <path class="cls-1" d="M75.63,45.45H.88c-.48,0-.88-.39-.88-.88s.39-.88,.88-.88H75.63c.48,0,.88,.39,.88,.88s-.39,.88-.88,.88Z"/>
      <path class="cls-1" d="M61.2,70.19H15.31v-.88c0-5.61,4.55-10.15,10.16-10.16h25.58c5.61,0,10.15,4.55,10.16,10.16v.88Zm-44.1-1.75H59.4c-.45-4.28-4.06-7.53-8.36-7.53H25.47c-4.3,0-7.91,3.25-8.36,7.53Z"/>
      <path class="cls-1" d="M43.31,14.88c2.56,.81,4.66,2.72,6.2,4.93,.59,.85,1.11,1.74,1.58,2.67l.12-.8c.76-5.2-2.84-10.04-8.04-10.8-.45-.07-.91-.1-1.37-.1-4.13,0-7.79,2.66-9.05,6.6,.36-.3,.74-.59,1.14-.86,2.74-1.83,6.28-2.62,9.43-1.63Z"/>
    </g>
  </g>
</svg>