<?xml version="1.0" encoding="UTF-8"?>
<svg id="Layer_2" data-name="Layer 2" xmlns="http://www.w3.org/2000/svg" viewBox="0 0 61.52 68.91">
  <defs>
    <style>
      .cls-1 {
        fill: #007fa3;
      }
    </style>
  </defs>
  <g id="Layer_1-2" data-name="Layer 1">
    <g>
      <path class="cls-1" d="M4.92,49.33C2.2,49.33,0,47.13,0,44.41v-7.33c0-1.61,.72-3.14,1.97-4.16l3.41-2.8c.37-.31,.92-.26,1.23,.11,.31,.37,.26,.92-.11,1.23,0,0,0,0,0,0l-3.41,2.8c-.84,.69-1.33,1.72-1.33,2.81v7.33c0,1.75,1.42,3.17,3.17,3.17,.48,0,.88,.39,.88,.88s-.39,.88-.88,.88Z"/>
      <path class="cls-1" d="M15.66,68.91h-1.11c-.48,0-.88-.39-.88-.88s.39-.88,.88-.88h1.11c1.46,0,2.65-1.19,2.65-2.65v-25.46c0-.48,.39-.88,.87-.88,.18,0,.35,.05,.5,.15l3.2,2.17c.81,.55,1.91,.34,2.46-.47,.03-.04,.05-.08,.07-.12l3.62-6.36c.47-.82,.18-1.86-.64-2.33-.02,0-.03-.02-.05-.03-.79-.41-1.77-.15-2.24,.61l-2.09,3.7c-.24,.42-.77,.57-1.19,.33-.04-.02-.08-.05-.12-.08l-5.44-4.4c-.4-.28-.5-.82-.22-1.22,.28-.4,.82-.5,1.22-.22,.03,.02,.07,.05,.1,.08l4.64,3.75,1.59-2.82,.02-.03c.95-1.55,2.94-2.1,4.55-1.25,1.69,.88,2.34,2.97,1.46,4.66-.02,.04-.04,.07-.06,.11l-3.61,6.36c-.96,1.69-3.11,2.28-4.8,1.32-.08-.04-.16-.09-.23-.14l-1.84-1.24v23.8c0,2.43-1.97,4.4-4.4,4.41h0Z"/>
      <path class="cls-1" d="M8.62,68.91c-2.43,0-4.39-1.97-4.4-4.4v-23.94l.02-2.41c0-.48,.39-.88,.88-.88h0c.48,0,.88,.39,.88,.88l-.02,2.41v23.93c0,1.46,1.19,2.65,2.65,2.65s2.65-1.19,2.65-2.65v-13.96c0-.48,.39-.88,.88-.88s.88,.39,.88,.88v13.96c0,2.43-1.97,4.4-4.4,4.41h0Z"/>
      <path class="cls-1" d="M12.14,30.49c-4.4,0-7.96-3.56-7.96-7.96s3.56-7.96,7.96-7.96c4.4,0,7.96,3.56,7.96,7.96h0c0,4.39-3.56,7.96-7.96,7.96Zm0-14.17c-3.43,0-6.21,2.78-6.21,6.21,0,3.43,2.78,6.21,6.21,6.21,3.43,0,6.21-2.78,6.21-6.21h0c0-3.43-2.78-6.21-6.21-6.21Z"/>
      <path class="cls-1" d="M12.14,26.49c-2.19,0-3.96-1.77-3.96-3.96s1.77-3.96,3.96-3.96c2.19,0,3.96,1.77,3.96,3.96h0c0,2.19-1.77,3.95-3.96,3.96Z"/>
      <path class="cls-1" d="M29.11,24.71c-.34,0-.64-.19-.79-.5l-2.33-4.91h-3.67c-.48,0-.88-.39-.88-.88s.39-.88,.88-.88h4.23c.34,0,.65,.19,.79,.5l1.78,3.75,1.78-3.75c.15-.3,.45-.5,.79-.5h14.54c1.17,0,2.11-.95,2.11-2.11V3.86c0-1.17-.95-2.11-2.11-2.11H15.13c-1.17,0-2.11,.95-2.11,2.11V12.36c0,.48-.39,.88-.88,.88s-.88-.39-.88-.88V3.86c0-2.13,1.73-3.86,3.86-3.86h31.09c2.13,0,3.86,1.73,3.86,3.86V15.43c0,2.13-1.73,3.86-3.86,3.86h-13.98l-2.33,4.91c-.15,.3-.45,.5-.79,.49Z"/>
      <path class="cls-1" d="M26.37,10.26c-.67,0-1.21-.54-1.21-1.21,0-.67,.54-1.21,1.21-1.21s1.21,.54,1.21,1.21c0,0,0,0,0,0,0,.67-.54,1.21-1.21,1.21Z"/>
      <path class="cls-1" d="M31.01,10.26c-.67,0-1.21-.54-1.21-1.21,0-.67,.54-1.21,1.21-1.21s1.21,.54,1.21,1.21c0,0,0,0,0,0,0,.67-.54,1.21-1.21,1.21Z"/>
      <path class="cls-1" d="M35.65,10.26c-.67,0-1.21-.54-1.21-1.21,0-.67,.54-1.21,1.21-1.21s1.21,.54,1.21,1.21c0,0,0,0,0,0,0,.67-.54,1.21-1.21,1.21Z"/>
      <path class="cls-1" d="M42.38,56.85c-3.96,0-7.16-3.21-7.16-7.16s3.21-7.16,7.16-7.16c.48,0,.88,.39,.88,.88s-.39,.88-.88,.88c-2.99,0-5.41,2.43-5.41,5.42,0,2.99,2.43,5.41,5.42,5.41,1.7,0,3.29-.8,4.32-2.15,.29-.39,.84-.46,1.23-.17,.39,.29,.46,.84,.17,1.23h0c-1.35,1.8-3.47,2.85-5.72,2.84Z"/>
      <path class="cls-1" d="M51.75,54.03c-.48,0-.88-.39-.88-.88,0-.1,.02-.2,.05-.29,1.75-4.92-.83-10.33-5.75-12.08-.21-.08-.43-.14-.65-.2-.47-.11-.76-.59-.64-1.06,.11-.47,.59-.76,1.06-.64,.02,0,.04,0,.05,.01,5.96,1.65,9.46,7.82,7.81,13.78-.07,.26-.15,.51-.24,.76-.12,.35-.44,.59-.81,.59Z"/>
      <path class="cls-1" d="M51.75,57.64c-.19,0-.38-.06-.53-.18l-9.36-7.08c-.22-.17-.35-.42-.35-.7v-11.85c0-.48,.39-.88,.88-.88s.88,.39,.88,.88v11.42l9.02,6.82c.39,.29,.46,.84,.17,1.23-.17,.22-.42,.35-.7,.35h0Z"/>
      <path class="cls-1" d="M42.31,68.91c-10.62,0-19.23-8.63-19.22-19.25,0-1.13,.1-2.26,.3-3.37,.09-.48,.54-.79,1.02-.71s.79,.54,.71,1.02c-1.71,9.49,4.6,18.58,14.09,20.29,9.49,1.71,18.58-4.6,20.29-14.09,1.71-9.49-4.6-18.58-14.09-20.29-1.02-.18-2.06-.28-3.1-.28-2.42,0-4.82,.5-7.03,1.47-.44,.21-.96,.02-1.17-.42-.21-.44-.02-.96,.42-1.17,.01,0,.03-.01,.04-.02,2.44-1.08,5.07-1.63,7.74-1.62h0c10.61,0,19.22,8.6,19.21,19.22,0,10.61-8.6,19.21-19.21,19.21h0Z"/>
      <path class="cls-1" d="M60.65,50.56h-2.48c-.48,0-.88-.39-.88-.88s.39-.88,.88-.88h2.48c.48,0,.88,.39,.88,.88s-.39,.88-.88,.88Z"/>
      <path class="cls-1" d="M42.31,34.7c-.48,0-.88-.39-.88-.88v-2.48c0-.48,.39-.88,.88-.88s.88,.39,.88,.88v2.48c0,.48-.39,.88-.88,.88Z"/>
      <path class="cls-1" d="M42.31,68.91c-.48,0-.88-.39-.88-.88v-2.49c0-.48,.39-.88,.88-.88s.88,.39,.88,.88v2.49c0,.48-.39,.88-.88,.88Z"/>
    </g>
  </g>
</svg>